<svg fill="none" height="74" viewBox="0 0 200 74" width="200" xmlns="http://www.w3.org/2000/svg" xmlns:xlink="http://www.w3.org/1999/xlink"><linearGradient id="a" gradientUnits="userSpaceOnUse" x1="1" x2="31" y1="17" y2="47"><stop offset="0" stop-color="#6b57ff"/><stop offset=".498854" stop-color="#ff45ed"/><stop offset="1" stop-color="#dd1265"/></linearGradient><path clip-rule="evenodd" d="m91.9677 9.01h.0091v-.01zm0 0h-6.3909l-12.37 13.59v-13.59h-5.2v29.96h5.2v-14.3l12.46 14.3h6.59l-13.44-15.52zm3.4391 2.69h4.7002v5.35h5.82l-.02 4.39h-5.82l.02 11.06c0 .6.2 1.1.59 1.49s.89.59 1.49.59h3.72v4.39h-4.73c-1.17 0-2.2302-.25-3.1602-.75s-1.66-1.2-2.18-2.08c-.52-.89-.78-1.89-.78-3l-.02-11.71h-3.85l.02-4.39h2.4c.55 0 .98-.17 1.31-.5s.49-.76.49-1.29zm23.3802 4.84c2.15 0 4.11.5 5.86 1.5s3.13 2.37 4.14 4.12c1.01 1.74 1.51 3.7 1.51 5.85s-.51 4.1-1.51 5.85-2.39 3.12-4.14 4.12c-1.76 1-3.74 1.5-5.89 1.5s-4.11-.5-5.86-1.5-3.13-2.38-4.14-4.12-1.51-3.7-1.51-5.85.5-4.1 1.5-5.85 2.38-3.12 4.14-4.12c1.77-1 3.75-1.5 5.9-1.5zm3.25 17.55c.95-.58 1.69-1.4 2.21-2.46s.78-2.25.78-3.62-.26-2.58-.79-3.63c-.52-1.05-1.26-1.87-2.21-2.46s-2.04-.89-3.26-.89-2.31.3-3.26.88c-.94.58-1.68 1.4-2.2 2.46s-.78 2.28-.78 3.64.26 2.56.78 3.62c.52 1.05 1.26 1.87 2.2 2.46s2.04.88 3.26.88 2.31-.3 3.27-.88zm19.01-15.98c1.17-.81 2.53-1.21 4.09-1.21l-.01.01h.81v5.09h-1.41c-1.12 0-2.11.21-2.94.62-.84.42-1.48 1.01-1.93 1.78s-.67 1.68-.67 2.74v11.83h-5.05v-21.92h5.01v3.32c.57-.93 1.27-1.69 2.1-2.26zm-66.8173 41.4057c.869 0 1.6581.2397 2.3573.6992.6992.4694 1.2486 1.1087 1.6481 1.9178s.5993 1.728.5993 2.7468c0 1.0189-.1998 1.9378-.5993 2.7469-.3995.819-.9489 1.4583-1.6481 1.9178-.6992.4694-1.4883.6992-2.3673.6992-.819 0-1.5382-.1798-2.1475-.5394-.4795-.2697-.8391-.6692-1.1487-1.1287v1.4284h-2.9167v-14.004h2.9267v5.1841c.3096-.4495.6692-.8491 1.1487-1.1287.6093-.3596 1.3284-.5394 2.1475-.5394zm.4495 7.7811c.3696-.2298.6592-.5594.869-.9789.2097-.4195.3096-.889.3096-1.4384 0-.5493-.0999-1.0288-.3096-1.4483-.2098-.4195-.4994-.7492-.869-.9789s-.7891-.3496-1.2785-.3496c-.4895 0-.919.1199-1.2886.3496-.3695.2297-.6592.5594-.869.9789-.2097.4195-.3096.889-.3096 1.4383 0 .5494.0999 1.0289.3096 1.4484.2098.4195.4995.7491.869.9789.3696.2297.8091.3496 1.2886.3496.4794 0 .9089-.1199 1.2785-.3496zm7.1518-7.5414 2.3573 6.3627h.01l2.1675-6.3627h2.9366l-4.2551 10.8675c-.2997.7792-.7392 1.3984-1.3085 1.8679-.5694.4695-1.2685.6992-2.0876.6992h-1.8279v-2.587h1.6381c.2297 0 .4195-.05.5694-.1499.1498-.0998.2796-.2497.3895-.4594l.2997-.6093-3.9056-9.629zm16.521 6.4326c.1698-.3096.2498-.6592.2498-1.0488v-9.1395h3.0962v9.3593c0 .879-.2 1.6681-.609 2.3773-.41.7091-.969 1.2585-1.6782 1.6581-.7092.3995-1.5182.5993-2.4072.5993h-2.3673v-2.8468h1.9578c.3995 0 .7491-.0799 1.0488-.2497.3096-.1698.5393-.3995.7091-.7092zm15.243-1.8978h-6.493v.01 3.0065h7.372v2.697h-10.389v-14.004h10.189v2.7069h-7.172v2.9666h6.493zm6.153-5.5137h-4.146-.01v-2.7768h11.377v2.7768h-4.125v11.2172h-3.096zm17.18 3.8956c.289.0799.559.1798.809.3096h.01c.569.3097 1.019.7292 1.338 1.2785.32.5494.48 1.1687.48 1.8579 0 .7492-.2 1.4184-.61 2.0077-.409.5893-.978 1.0488-1.718 1.3784-.739.3297-1.578.4995-2.517.4995h-6.342v-14.004h6.222c.889 0 1.689.1598 2.388.4695.699.3096 1.238.7491 1.628 1.3085.389.5593.579 1.1986.579 1.9078 0 .6193-.15 1.1686-.439 1.6481-.29.4794-.699.859-1.209 1.1187-.179.0943-.385.153-.584.2098zm-2.797-4.3251h-2.747v.02 3.4261h2.747c.38 0 .719-.0799 1.009-.2198.3-.1398.519-.3396.689-.6093s.25-.5893.25-.9289-.09-.6393-.25-.889c-.17-.2597-.399-.4495-.689-.5893-.29-.1399-.629-.2098-1.009-.2098zm1.239 9.0896c.319-.1498.569-.3496.749-.6193v.02c.18-.2697.269-.5694.269-.9289 0-.3596-.089-.6793-.269-.9589-.18-.2797-.44-.4995-.759-.6493-.33-.1498-.7-.2297-1.109-.2297h-2.867v3.5858h2.867c.419 0 .799-.0699 1.119-.2197zm16.541-4.6647c-.43.6693-1.029 1.1987-1.808 1.5682h-.01c-.14.07-.3.1299-.46.1898l3.197 5.4738h-3.536l-2.837-5.1042h-2.018v5.1042h-3.096v-14.004h6.133c1.009 0 1.898.1798 2.667.5494s1.358.889 1.778 1.5582c.419.6692.629 1.4284.629 2.3173 0 .889-.21 1.6781-.639 2.3473zm-3.556-.6093c.319-.1598.569-.3895.739-.6792v.01c.17-.2897.26-.6293.26-1.0288s-.09-.7392-.26-1.0288c-.17-.2897-.42-.5094-.739-.6693-.32-.1498-.7-.2297-1.129-.2297h-2.787v3.8656h2.787c.429 0 .809-.0799 1.129-.2398zm5.493 7.8411 5.005-14.004h.01 3.356l5.104 14.004h-3.087l-1.058-3.0865h-5.194l-.989 3.0865zm6.453-10.3781-1.608 4.9443h3.706l-1.718-4.9443-.19-.899zm11.427 10.3781h-3.196v-14.004h3.196zm5.434-14.004 6.013 9.4692h.01v-9.4692h2.827v14.004h-3.047l-5.993-9.4692v9.4692h-2.827v-14.004zm19.627 6.4326c.55.3996.979.889 1.279 1.4684v-.02c.309.5893.459 1.2286.459 1.9178 0 .849-.23 1.6081-.679 2.2774-.45.6692-1.079 1.1986-1.878 1.5782-.809.3795-1.738.5693-2.767.5693s-1.947-.1898-2.747-.5594c-.799-.3695-1.428-.8989-1.887-1.5582-.46-.6592-.7-1.4383-.71-2.3073h3.097c0 .3596.1.6792.29.9589.189.2797.459.4894.809.6392.349.1499.749.2298 1.178.2298.43 0 .799-.0699 1.119-.1998.32-.1298.559-.3196.739-.5693.18-.2498.27-.5294.27-.8391 0-.3895-.12-.7092-.36-.9689s-.569-.4395-.979-.5393l-2.517-.5194c-.659-.1399-1.238-.3896-1.738-.7492-.499-.3596-.889-.8191-1.158-1.3584-.27-.5494-.41-1.1587-.41-1.8279 0-.8391.22-1.5782.639-2.2275.43-.6492 1.019-1.1587 1.778-1.5282.759-.3696 1.618-.5494 2.597-.5494s1.858.1798 2.617.5294 1.359.839 1.788 1.4683c.43.6193.659 1.3485.679 2.1575h-3.096c0-.2996-.09-.5693-.25-.809-.17-.2398-.399-.4196-.689-.5494-.29-.1398-.639-.1998-1.019-.1998-.379 0-.719.0699-1.009.1898-.289.1199-.519.2997-.679.5194-.16.2297-.24.4894-.24.7891 0 .3396.11.6093.33.839.22.2298.519.3796.889.4695l2.377.4894c.709.1299 1.329.3996 1.878.7891z" fill="#000" fill-rule="evenodd"/><path d="m47.9995 31.9981-16.002 16.002-31.9975-32.0041 16.002-15.996z" fill="url(#a)"/><path d="m32.0103 15.9961h-16.002v16.002h16.002z" fill="#000"/></svg>